<?xml version="1.0" encoding="iso-8859-1"?>
<!-- Generator: Adobe Illustrator 17.1.0, SVG Export Plug-In . SVG Version: 6.00 Build 0)  -->
<!DOCTYPE svg PUBLIC "-//W3C//DTD SVG 1.1//EN" "http://www.w3.org/Graphics/SVG/1.1/DTD/svg11.dtd">
<svg version="1.1" id="Capa_1" xmlns="http://www.w3.org/2000/svg" xmlns:xlink="http://www.w3.org/1999/xlink" x="0px" y="0px"
	 viewBox="0 0 474.889 474.889" style="enable-background:new 0 0 474.889 474.889;" xml:space="preserve">
<path d="M469.271,230.185l-11.864-3.077c-2.522-54.938-25.108-106.227-64.253-145.373c-30.297-30.297-68.378-50.959-110.125-59.752
	c-4.053-0.854-8.03,1.739-8.885,5.793c-0.854,4.053,1.74,8.031,5.793,8.885c38.894,8.192,74.375,27.446,102.609,55.681
	c35.37,35.37,56.229,81.379,59.608,130.81l-27.068-7.021c-3.236-27.118-12.752-53.386-27.678-76.277
	c-2.262-3.47-6.908-4.45-10.379-2.187c-3.47,2.263-4.448,6.909-2.186,10.379c12.593,19.314,20.973,41.255,24.533,64.01
	l-66.286-17.193l38.625-81.704c1.354-2.864,0.763-6.271-1.479-8.51c-2.239-2.24-5.646-2.83-8.51-1.475l-81.692,38.661
	l-17.202-66.322c22.433,3.511,44.094,11.709,63.199,24.007c1.256,0.808,2.662,1.194,4.053,1.194c2.465,0,4.88-1.215,6.313-3.442
	c2.242-3.483,1.235-8.124-2.247-10.366c-22.669-14.591-48.631-23.91-75.393-27.105L244.704,5.617C243.847,2.31,240.861,0,237.444,0
	s-6.402,2.31-7.26,5.617l-14.056,54.191c-37.934,4.505-72.189,20.86-98.999,45.242l-3.971-1.877c-2.865-1.354-6.27-0.762-8.51,1.478
	c-2.24,2.241-2.83,5.647-1.475,8.511l1.875,3.961c-24.403,26.841-40.74,61.123-45.24,99.006l-26.974,6.996
	c3.306-47.679,23.138-94.415,59.507-130.784c27.933-27.933,63.006-47.099,101.427-55.428c4.048-0.877,6.618-4.871,5.741-8.918
	c-0.877-4.048-4.871-6.621-8.918-5.741c-41.241,8.94-78.883,29.508-108.856,59.481C42.589,120.88,20.003,172.17,17.482,227.107
	l-11.864,3.077C2.31,231.042,0,234.027,0,237.444s2.31,6.402,5.617,7.26l11.864,3.077c2.522,54.937,25.108,106.226,64.253,145.372
	c39.146,39.146,90.435,61.732,145.372,64.253l3.077,11.864c0.858,3.308,3.843,5.617,7.26,5.617s6.402-2.31,7.26-5.617l3.077-11.864
	c54.938-2.522,106.227-25.108,145.373-64.253c39.145-39.146,61.731-90.435,64.253-145.373l11.864-3.077
	c3.308-0.858,5.617-3.843,5.617-7.26S472.579,231.042,469.271,230.185z M349.188,349.195l-65.329-30.884l2.59-9.987l4.502-17.357
	l0.012-0.003l58.218,58.218L349.188,349.195z M198.423,287.072l39.021-39.021v189.465l0,0L198.423,287.072z M125.693,349.188
	l30.884-65.329l13.683,3.549l13.661,3.543l0.003,0.012l-58.218,58.218L125.693,349.188z M187.481,170.261l-3.544,13.661
	l-0.012,0.003l-58.219-58.219l-0.006-0.013l65.329,30.884L187.481,170.261z M141.798,280.026l-29.821,63.08
	c-18.846-22.382-31.785-49.922-36.483-80.278L141.798,280.026z M194.853,333.053l17.207,66.341
	c-30.36-4.699-57.902-17.64-80.285-36.489L194.853,333.053z M280.026,333.09l63.081,29.821
	c-22.382,18.847-49.922,31.785-80.279,36.483L280.026,333.09z M333.054,280.035l66.341-17.207
	c-4.698,30.36-17.639,57.902-36.488,80.286L333.054,280.035z M287.073,276.465l-39.021-39.021h189.464L287.073,276.465z
	 M318.312,191.03l-18.613-4.828l-8.732-2.265l-0.003-0.012l58.219-58.219l0.013-0.006L318.312,191.03z M276.466,187.817
	l-39.021,39.021h0V37.373L276.466,187.817z M212.058,75.503l-17.195,66.295l-62.956-29.762
	C154.285,93.183,181.788,80.207,212.058,75.503z M112.043,131.901l29.793,62.953L75.496,212.06
	C80.197,181.822,93.172,154.303,112.043,131.901z M187.817,198.423l39.021,39.021H37.373L187.817,198.423z M92.341,382.547
	c-36.369-36.369-56.201-83.105-59.507-130.784l26.976,6.997c4.39,36.813,20.26,71.506,45.24,98.999l-1.877,3.97
	c-1.354,2.864-0.763,6.271,1.478,8.51c1.438,1.438,3.357,2.196,5.304,2.196c1.086,0,2.181-0.236,3.207-0.721l3.966-1.877
	c27.493,24.981,62.186,40.851,99,45.241l6.997,26.976C175.447,438.749,128.71,418.916,92.341,382.547z M382.547,382.547
	c-36.369,36.369-83.105,56.201-130.783,59.507l6.997-26.976c36.813-4.39,71.506-20.26,98.999-45.24l3.971,1.877
	c1.024,0.484,2.118,0.72,3.203,0.72c1.948,0,3.868-0.759,5.307-2.198c2.239-2.241,2.83-5.647,1.475-8.511l-1.877-3.967
	c24.981-27.493,40.851-62.186,45.241-98.999l27.076-7.023C438.776,301.168,417.917,347.177,382.547,382.547z"/>
<g>
</g>
<g>
</g>
<g>
</g>
<g>
</g>
<g>
</g>
<g>
</g>
<g>
</g>
<g>
</g>
<g>
</g>
<g>
</g>
<g>
</g>
<g>
</g>
<g>
</g>
<g>
</g>
<g>
</g>
</svg>
