<?xml version="1.0" standalone="no"?>
<!DOCTYPE svg PUBLIC "-//W3C//DTD SVG 20010904//EN"
 "http://www.w3.org/TR/2001/REC-SVG-20010904/DTD/svg10.dtd">
<svg version="1.0" xmlns="http://www.w3.org/2000/svg"
 width="955.000000pt" height="1201.000000pt" viewBox="0 0 955.000000 1201.000000"
 preserveAspectRatio="xMidYMid meet">

<g transform="translate(0.000000,1201.000000) scale(0.100000,-0.100000)"
fill="#000000" stroke="none">
<path d="M4276 11920 c-147 -248 -272 -582 -336 -900 -52 -257 -64 -380 -63
-670 0 -421 41 -676 154 -963 126 -318 295 -565 583 -852 219 -218 404 -363
665 -523 l54 -33 -6 -482 c-5 -428 -20 -756 -43 -916 l-6 -44 -52 119 c-349
792 -846 1379 -1406 1659 -350 175 -696 245 -1140 232 -217 -7 -384 -24 -600
-63 -274 -50 -610 -142 -610 -168 0 -31 43 -245 69 -348 249 -960 930 -1638
1886 -1877 305 -76 638 -115 1000 -114 292 0 436 12 663 58 69 14 126 24 127
23 1 -2 -10 -79 -26 -173 -104 -615 -266 -1223 -474 -1775 -75 -200 -175 -440
-184 -440 -3 0 -22 44 -41 98 -81 227 -261 544 -426 752 -90 113 -286 308
-404 402 -413 329 -947 539 -1549 608 -153 18 -493 8 -651 -19 -349 -60 -694
-178 -1035 -355 -77 -40 -159 -84 -182 -99 l-43 -27 41 -117 c154 -439 417
-887 717 -1219 224 -248 457 -426 744 -569 351 -174 706 -245 1153 -231 552
18 996 111 1444 303 30 13 -166 -324 -330 -568 -695 -1032 -1589 -1690 -2679
-1973 -345 -89 -695 -138 -1096 -152 l-184 -7 0 -250 0 -250 191 7 c1240 44
2294 450 3196 1232 543 470 1055 1135 1384 1797 41 81 76 147 79 147 3 0 50
-29 105 -65 331 -219 843 -400 1369 -485 325 -53 776 -80 1014 -61 767 60
1442 528 1948 1348 84 136 244 442 244 467 0 32 -273 203 -515 321 -345 169
-704 277 -1095 331 -186 25 -528 30 -695 9 -587 -71 -1155 -370 -1699 -895
-114 -110 -298 -313 -405 -447 -40 -51 -74 -93 -75 -93 -2 0 32 87 74 193 186
465 327 918 441 1416 44 191 113 547 136 701 10 65 -5 63 218 35 186 -24 763
-28 935 -7 715 89 1217 315 1603 721 430 454 696 965 762 1469 16 117 20 348
7 369 -17 27 -481 48 -752 33 -551 -30 -966 -127 -1338 -314 -365 -184 -640
-457 -907 -900 -153 -255 -321 -629 -435 -973 -28 -81 -48 -134 -45 -118 2 17
11 93 20 170 48 443 70 944 61 1413 l-6 342 54 108 c223 446 342 908 362 1405
20 513 -136 963 -474 1367 -301 359 -778 691 -1302 905 -158 64 -139 67 -194
-25z"/>
</g>
</svg>
