<?xml version="1.0" standalone="no"?>
<!DOCTYPE svg PUBLIC "-//W3C//DTD SVG 20010904//EN"
 "http://www.w3.org/TR/2001/REC-SVG-20010904/DTD/svg10.dtd">
<svg version="1.0" xmlns="http://www.w3.org/2000/svg"
 width="980.000000pt" height="948.000000pt" viewBox="0 0 980.000000 948.000000"
 preserveAspectRatio="xMidYMid meet">

<g transform="translate(0.000000,948.000000) scale(0.100000,-0.100000)"
fill="#000000" stroke="none">
<path d="M5698 9468 c-60 -12 -145 -60 -335 -187 -248 -165 -388 -276 -533
-421 -251 -251 -350 -458 -411 -860 -31 -203 -31 -497 -1 -695 51 -330 171
-717 380 -1225 l60 -144 -308 -312 c-346 -351 -461 -481 -595 -669 -114 -160
-134 -185 -135 -165 0 8 13 85 29 170 29 152 58 346 82 545 18 147 16 433 -4
521 -39 172 -108 315 -252 524 -155 224 -231 343 -295 460 -150 272 -179 312
-238 337 -69 29 -142 -16 -323 -196 -179 -180 -253 -295 -355 -549 -90 -222
-141 -427 -165 -652 -17 -162 -7 -463 21 -620 84 -475 252 -755 796 -1327 85
-89 154 -167 154 -174 0 -6 -84 -170 -186 -363 -379 -713 -408 -765 -590
-1058 -16 -26 -31 -48 -35 -48 -3 0 -11 66 -17 148 -35 413 -161 693 -526
1162 -117 151 -195 270 -262 401 -121 236 -194 239 -419 14 -311 -310 -511
-689 -570 -1080 -36 -237 -29 -579 15 -750 55 -216 195 -449 380 -633 111
-111 219 -188 370 -266 l120 -62 -95 -80 c-193 -160 -529 -386 -1120 -752
-240 -149 -335 -227 -335 -275 0 -36 25 -96 53 -125 55 -59 117 -68 197 -27
132 67 538 316 825 508 445 297 593 414 856 677 299 299 555 608 824 994 l121
173 114 -33 c469 -136 823 -204 1063 -204 349 0 737 113 1047 305 343 213 668
552 820 855 73 146 159 463 145 536 -8 44 -48 90 -88 103 -18 6 -165 15 -327
21 -162 6 -344 17 -405 25 -179 25 -399 34 -549 24 -110 -7 -156 -15 -229 -39
-223 -75 -518 -270 -994 -657 -90 -73 -163 -130 -163 -127 0 10 88 179 183
349 271 488 686 1175 775 1284 34 41 37 43 77 38 23 -4 140 -42 261 -85 506
-183 862 -286 1104 -319 107 -14 201 -18 450 -18 339 0 355 2 530 57 359 114
607 348 991 931 151 229 172 283 139 353 -11 22 -35 51 -52 64 -31 23 -44 25
-218 32 -228 9 -285 17 -577 79 -128 27 -265 54 -305 60 -98 14 -468 14 -598
-1 -225 -25 -467 -89 -724 -190 -83 -33 -151 -58 -153 -56 -10 10 262 233 592
486 267 205 376 275 858 555 l39 23 151 -73 c406 -194 509 -223 837 -232 255
-7 372 4 525 48 225 64 403 149 561 267 169 126 466 425 748 752 243 281 303
372 292 438 -6 41 -48 89 -94 109 -127 54 -1655 37 -2017 -23 -126 -20 -274
-68 -380 -122 -80 -40 -106 -61 -225 -181 -149 -150 -229 -251 -403 -506 -79
-117 -126 -176 -149 -189 -186 -105 -559 -334 -707 -434 -101 -68 -185 -121
-187 -119 -3 2 30 80 72 173 101 223 135 310 189 475 86 270 123 499 132 829
7 271 0 332 -68 605 -71 281 -70 278 -78 500 -8 221 -14 244 -73 288 -41 30
-63 35 -110 25z m-154 -475 c3 -10 16 -74 30 -143 14 -69 49 -217 77 -330 46
-184 52 -219 56 -347 13 -342 -74 -773 -229 -1133 -108 -251 -369 -760 -389
-760 -43 0 -286 703 -335 970 -22 114 -31 559 -15 709 27 257 124 469 296 644
110 112 470 407 497 407 3 0 9 -8 12 -17z m3707 -1150 c17 -17 -24 -70 -194
-258 -371 -411 -574 -564 -876 -665 -161 -54 -264 -70 -450 -70 -174 0 -305
17 -417 55 -93 31 -342 141 -373 164 l-24 18 58 89 c102 158 251 349 329 421
129 121 294 190 506 212 398 41 1410 65 1441 34z m-6141 -1030 c35 -60 115
-184 178 -278 185 -272 207 -306 245 -380 61 -122 79 -195 84 -345 8 -216 -38
-555 -138 -1000 -51 -231 -125 -530 -133 -537 -25 -25 -331 312 -468 516 -120
180 -187 334 -230 534 -20 92 -22 130 -22 382 0 367 17 469 119 725 52 131
104 234 162 325 44 67 121 162 134 164 4 1 35 -47 69 -106z m3366 -1103 c136
-12 884 -159 884 -174 0 -30 -264 -358 -395 -489 -233 -234 -439 -297 -920
-284 -221 6 -348 24 -579 83 -138 34 -757 235 -786 255 -25 16 25 48 260 168
399 203 670 319 874 371 262 68 457 89 662 70z m-4857 -2185 c279 -345 450
-666 482 -902 17 -132 6 -439 -19 -523 -91 -302 -248 -475 -432 -475 -55 0
-75 6 -127 34 -150 81 -374 324 -465 506 -84 165 -115 400 -87 653 40 370 172
686 379 915 l62 68 47 -68 c25 -38 97 -131 160 -208z m3568 144 c87 -11 226
-22 308 -26 166 -6 195 -13 195 -42 0 -35 -117 -252 -183 -341 -129 -173 -321
-353 -517 -485 -169 -113 -430 -226 -624 -270 -170 -39 -437 -35 -681 10 -244
45 -475 108 -475 130 0 7 69 73 153 147 563 499 987 809 1197 876 110 36 356
36 627 1z"/>
</g>
</svg>
